<svg width="50" height="40" viewBox="0 0 50 40" fill="none" xmlns="http://www.w3.org/2000/svg">
<path d="M25 0.777832C17.9861 0.777832 12.3698 3.97228 8.28128 7.77436C4.21878 11.5417 1.50176 16.0556 0.217041 19.1546C-0.0694173 19.8403 -0.0694173 20.6042 0.217041 21.29C1.50176 24.3889 4.21878 28.9028 8.28128 32.6702C12.3698 36.4723 17.9861 39.6667 25 39.6667C32.0139 39.6667 37.6302 36.4723 41.7188 32.6702C45.7813 28.8942 48.4983 24.3889 49.7917 21.29C50.0781 20.6042 50.0781 19.8403 49.7917 19.1546C48.4983 16.0556 45.7813 11.5417 41.7188 7.77436C37.6302 3.97228 32.0139 0.777832 25 0.777832ZM37.5 20.2223C37.5 27.1233 31.9011 32.7223 25 32.7223C18.099 32.7223 12.5 27.1233 12.5 20.2223C12.5 13.3212 18.099 7.72228 25 7.72228C31.9011 7.72228 37.5 13.3212 37.5 20.2223ZM25 14.6667C25 17.731 22.5087 20.2223 19.4445 20.2223C18.4462 20.2223 17.5087 19.9619 16.7014 19.4931C16.6841 19.7362 16.6667 19.9705 16.6667 20.2223C16.6667 24.823 20.3993 28.5556 25 28.5556C29.6007 28.5556 33.3334 24.823 33.3334 20.2223C33.3334 15.6216 29.6007 11.8889 25 11.8889C24.757 11.8889 24.5139 11.8976 24.2709 11.9237C24.7309 12.731 25 13.6685 25 14.6667Z" fill="white"/>
</svg>
