<svg width="50" height="50" viewBox="0 0 50 50" fill="none" xmlns="http://www.w3.org/2000/svg">
<path d="M35.42 1.88477L30.6934 6.61133L43.3887 19.3066L48.1153 14.5801C50.5567 12.1387 50.5567 8.18359 48.1153 5.74219L44.2676 1.88477C41.8262 -0.556641 37.8711 -0.556641 35.4297 1.88477H35.42ZM28.4864 8.81836L5.72271 31.5918C4.70709 32.6074 3.9649 33.8672 3.55474 35.2441L0.0977118 46.9922C-0.146429 47.8223 0.0781806 48.7109 0.683649 49.3164C1.28912 49.9219 2.17779 50.1465 2.9981 49.9121L14.7462 46.4551C16.1231 46.0449 17.3829 45.3027 18.3985 44.2871L41.1817 21.5137L28.4864 8.81836Z" fill="#FFE600"/>
</svg>
